<svg><defs>
    <style>
      .cls-2{fill:#445f96}
    </style>
  </defs><symbol id="icon-book">
  
  <g id="Book">
    <rect height="48" rx="2" ry="2" width="34" x="8" style="fill:#4b6ea4"/>
    <path class="cls-2" d="M10 0h2v48h-2a2 2 0 0 1-2-2V2a2 2 0 0 1 2-2Z"/>
    <path d="M40 44H10a2 2 0 0 0 0 4h30a2 2 0 0 0 2-2v-4a2.006 2.006 0 0 1-2 2Z" style="fill:#a09b8c"/>
    <path d="M40 44H10a2 2 0 0 0 0 4h30a2 2 0 0 0 2-2v-4a2.006 2.006 0 0 1-2 2Z" style="fill:#f1f2f2"/>
    <path d="M42 44v2a2.006 2.006 0 0 1-2 2H10a2 2 0 0 1-1.73-3A2 2 0 0 0 10 46h30a2.006 2.006 0 0 0 2-2Z" style="fill:#4c5665"/>
    <rect class="cls-2" height="10" rx="1" ry="1" width="19" x="17" y="6"/>
  </g>
</symbol><symbol id="icon-edit">
  <path d="M6 34.5V42h7.5l22.13-22.13-7.5-7.5L6 34.5zm35.41-20.41c.78-.78.78-2.05 0-2.83l-4.67-4.67c-.78-.78-2.05-.78-2.83 0l-3.66 3.66 7.5 7.5 3.66-3.66z"/>
  <path d="M0 0h48v48H0z" fill="none"/>
</symbol><symbol id="icon-search">
  <path d="m445 386.7-84.8-85.9c13.8-24.1 21-50.9 21-77.9C381.2 135.3 310 64 222.6 64 135.2 64 64 135.3 64 222.9c0 87.6 71.2 158.9 158.6 158.9 27.9 0 55.5-7.7 80.1-22.4l84.4 85.6c1.9 1.9 4.6 3.1 7.3 3.1s5.4-1.1 7.3-3.1l43.3-43.8c4-4.1 4-10.5 0-14.5zM222.6 125.9c53.4 0 96.8 43.5 96.8 97s-43.4 97-96.8 97-96.8-43.5-96.8-97 43.4-97 96.8-97z"/>
</symbol><symbol id="icon-up-arrow">
    <path d="M14.83 30.83 24 21.66l9.17 9.17L36 28 24 16 12 28z"/>
    <path d="M0 0h48v48H0z" fill="none"/>
</symbol></svg>